<svg xmlns="http://www.w3.org/2000/svg" xmlns:xlink="http://www.w3.org/1999/xlink" width="500" zoomAndPan="magnify" viewBox="0 0 375 374.999991" height="500" preserveAspectRatio="xMidYMid meet" version="1.2"><defs/><g id="41162dfdb8"><rect x="0" width="375" y="0" height="374.999991" style="fill:#ffffff;fill-opacity:1;stroke:none;"/><rect x="0" width="375" y="0" height="374.999991" style="fill:#f8f7f2;fill-opacity:1;stroke:none;"/><g style="fill:#000000;fill-opacity:1;"><g transform="translate(108.260006, 205.598282)"><path style="stroke:none" d="M 21.015625 -15.4375 C 20.253906 -15.539062 19.546875 -15.71875 18.890625 -15.96875 C 18.234375 -16.21875 17.65625 -16.535156 17.15625 -16.921875 C 17.050781 -15.328125 16.929688 -14.078125 16.796875 -13.171875 C 16.660156 -12.273438 16.550781 -11.359375 16.46875 -10.421875 C 16.382812 -9.492188 16.34375 -8.238281 16.34375 -6.65625 C 16.28125 -4.519531 15.660156 -2.914062 14.484375 -1.84375 C 13.316406 -0.78125 12.046875 -0.25 10.671875 -0.25 C 9.359375 -0.25 8.140625 -0.738281 7.015625 -1.71875 C 5.898438 -2.707031 5.203125 -4.210938 4.921875 -6.234375 C 4.921875 -13.078125 5.425781 -19.660156 6.4375 -25.984375 C 7.457031 -32.304688 8.539062 -38.125 9.6875 -43.4375 C 10.238281 -46.007812 10.910156 -48.375 11.703125 -50.53125 C 12.492188 -52.695312 13.738281 -54.4375 15.4375 -55.75 C 17.132812 -57.0625 19.597656 -57.71875 22.828125 -57.71875 C 23.484375 -57.71875 24.125 -57.582031 24.75 -57.3125 C 25.382812 -57.039062 26.054688 -56.628906 26.765625 -56.078125 C 29.234375 -53.617188 31.4375 -50.5 33.375 -46.71875 C 35.320312 -42.945312 37.019531 -38.894531 38.46875 -34.5625 C 39.914062 -30.238281 41.144531 -25.96875 42.15625 -21.75 C 43.175781 -17.539062 43.984375 -13.765625 44.578125 -10.421875 L 45.578125 -8.125 C 45.847656 -7.144531 45.984375 -6.328125 45.984375 -5.671875 C 45.984375 -3.972656 45.445312 -2.601562 44.375 -1.5625 C 43.3125 -0.519531 42.066406 0 40.640625 0 C 38.941406 0 37.613281 -0.519531 36.65625 -1.5625 C 35.695312 -2.601562 34.972656 -3.890625 34.484375 -5.421875 C 33.992188 -6.953125 33.597656 -8.484375 33.296875 -10.015625 C 32.992188 -11.546875 32.675781 -12.832031 32.34375 -13.875 C 32.019531 -14.914062 31.503906 -15.4375 30.796875 -15.4375 C 30.734375 -15.4375 30.675781 -15.4375 30.625 -15.4375 C 30.570312 -15.4375 30.519531 -15.4375 30.46875 -15.4375 Z M 22.25 -44.015625 C 21.707031 -42.265625 21.023438 -40.359375 20.203125 -38.296875 C 19.378906 -36.242188 18.96875 -34.039062 18.96875 -31.6875 C 18.96875 -30.15625 19.117188 -28.960938 19.421875 -28.109375 C 19.722656 -27.265625 20.394531 -26.84375 21.4375 -26.84375 L 28 -26.84375 C 28.601562 -26.84375 28.90625 -27.09375 28.90625 -27.59375 C 28.90625 -27.8125 28.875 -28.015625 28.8125 -28.203125 C 28.757812 -28.390625 28.707031 -28.597656 28.65625 -28.828125 C 27.832031 -31.554688 26.914062 -34.054688 25.90625 -36.328125 C 24.894531 -38.597656 23.675781 -41.160156 22.25 -44.015625 Z M 22.25 -44.015625 "/></g></g><g style="fill:#000000;fill-opacity:1;"><g transform="translate(155.877316, 205.598282)"><path style="stroke:none" d="M 35.640625 -37.859375 C 36.453125 -37.640625 37.335938 -37.390625 38.296875 -37.109375 C 39.253906 -36.835938 40.078125 -36.425781 40.765625 -35.875 C 41.453125 -35.332031 41.796875 -34.515625 41.796875 -33.421875 C 41.796875 -32.429688 41.316406 -31.660156 40.359375 -31.109375 C 39.398438 -30.566406 38.507812 -29.992188 37.6875 -29.390625 C 36.8125 -28.734375 35.851562 -28.390625 34.8125 -28.359375 C 33.769531 -28.335938 32.757812 -28.269531 31.78125 -28.15625 C 29.425781 -28 27.519531 -27.617188 26.0625 -27.015625 C 24.613281 -26.410156 23.453125 -25.492188 22.578125 -24.265625 C 21.703125 -23.035156 20.9375 -21.351562 20.28125 -19.21875 C 19.789062 -17.519531 19.378906 -15.832031 19.046875 -14.15625 C 18.722656 -12.488281 18.53125 -10.78125 18.46875 -9.03125 C 18.414062 -7.382812 17.8125 -5.945312 16.65625 -4.71875 C 15.507812 -3.488281 14.171875 -2.875 12.640625 -2.875 C 11.765625 -2.875 10.804688 -3.144531 9.765625 -3.6875 C 8.734375 -4.238281 7.804688 -4.9375 6.984375 -5.78125 C 6.160156 -6.632812 5.640625 -7.523438 5.421875 -8.453125 C 5.203125 -9.222656 5.078125 -10.003906 5.046875 -10.796875 C 5.023438 -11.585938 5.015625 -12.367188 5.015625 -13.140625 C 5.015625 -13.742188 5.023438 -14.34375 5.046875 -14.9375 C 5.078125 -15.539062 5.09375 -16.117188 5.09375 -16.671875 C 5.09375 -17.710938 5.035156 -18.75 4.921875 -19.78125 C 4.816406 -20.820312 4.597656 -21.863281 4.265625 -22.90625 C 4.160156 -23.125 4.109375 -23.476562 4.109375 -23.96875 C 4.109375 -25.289062 4.816406 -26.550781 6.234375 -27.75 C 7.660156 -28.957031 9.382812 -30.148438 11.40625 -31.328125 C 13.4375 -32.503906 15.300781 -33.613281 17 -34.65625 C 18.144531 -35.363281 19.332031 -35.976562 20.5625 -36.5 C 21.800781 -37.019531 23.128906 -37.28125 24.546875 -37.28125 C 25.203125 -37.28125 25.859375 -37.207031 26.515625 -37.0625 C 27.171875 -36.925781 27.828125 -36.859375 28.484375 -36.859375 C 29.691406 -36.859375 30.882812 -36.96875 32.0625 -37.1875 C 33.238281 -37.414062 34.429688 -37.640625 35.640625 -37.859375 Z M 35.640625 -37.859375 "/></g></g><g style="fill:#000000;fill-opacity:1;"><g transform="translate(193.560676, 205.598282)"><path style="stroke:none" d="M 31.859375 -26.03125 C 32.953125 -25.476562 34.019531 -25.203125 35.0625 -25.203125 C 36.425781 -25.203125 37.890625 -25.765625 39.453125 -26.890625 C 41.015625 -28.015625 42.546875 -29.460938 44.046875 -31.234375 C 45.554688 -33.015625 46.941406 -34.863281 48.203125 -36.78125 C 49.460938 -38.695312 50.445312 -40.476562 51.15625 -42.125 C 51.757812 -43.488281 52.304688 -44.8125 52.796875 -46.09375 C 53.285156 -47.382812 53.53125 -48.742188 53.53125 -50.171875 C 53.53125 -51.316406 53.3125 -52.519531 52.875 -53.78125 C 52.4375 -55.039062 52.21875 -56.21875 52.21875 -57.3125 C 52.21875 -58.40625 52.476562 -59.550781 53 -60.75 C 53.519531 -61.957031 54.175781 -63.125 54.96875 -64.25 C 55.757812 -65.375 56.59375 -66.273438 57.46875 -66.953125 C 58.351562 -67.640625 59.148438 -67.984375 59.859375 -67.984375 C 60.515625 -67.984375 61.320312 -67.722656 62.28125 -67.203125 C 63.238281 -66.679688 64.097656 -66.023438 64.859375 -65.234375 C 65.628906 -64.441406 66.015625 -63.632812 66.015625 -62.8125 C 66.015625 -62.644531 65.960938 -62.34375 65.859375 -61.90625 C 65.253906 -59.5 64.785156 -57.035156 64.453125 -54.515625 C 64.128906 -52.003906 63.707031 -49.515625 63.1875 -47.046875 C 62.664062 -44.585938 61.800781 -42.148438 60.59375 -39.734375 C 56.4375 -31.472656 50.976562 -24.113281 44.21875 -17.65625 C 37.457031 -11.195312 29.890625 -6.1875 21.515625 -2.625 C 20.472656 -2.1875 19.40625 -1.757812 18.3125 -1.34375 C 17.21875 -0.9375 16.066406 -0.734375 14.859375 -0.734375 C 11.523438 -0.734375 8.898438 -1.539062 6.984375 -3.15625 C 5.066406 -4.769531 4.109375 -6.726562 4.109375 -9.03125 C 4.109375 -9.957031 4.257812 -10.898438 4.5625 -11.859375 C 4.863281 -12.816406 5.34375 -13.789062 6 -14.78125 C 8.070312 -17.84375 10.53125 -20.273438 13.375 -22.078125 C 16.226562 -23.890625 19.515625 -25.015625 23.234375 -25.453125 C 24.660156 -25.503906 26.113281 -25.570312 27.59375 -25.65625 C 29.070312 -25.738281 30.492188 -25.863281 31.859375 -26.03125 Z M 31.859375 -26.03125 "/></g></g><g style="fill:#000000;fill-opacity:1;"><g transform="translate(247.253306, 205.598282)"><path style="stroke:none" d="M 9.859375 -16.5 C 11.222656 -16.394531 12.4375 -15.832031 13.5 -14.8125 C 14.570312 -13.800781 15.421875 -12.582031 16.046875 -11.15625 C 16.679688 -9.738281 17 -8.316406 17 -6.890625 C 17 -5.523438 16.4375 -4.15625 15.3125 -2.78125 C 14.1875 -1.414062 12.832031 -0.734375 11.25 -0.734375 C 9.988281 -0.734375 8.8125 -1.238281 7.71875 -2.25 C 6.625 -3.269531 5.75 -4.585938 5.09375 -6.203125 C 4.4375 -7.816406 4.109375 -9.472656 4.109375 -11.171875 C 4.109375 -13.304688 4.664062 -14.726562 5.78125 -15.4375 C 6.90625 -16.144531 8.265625 -16.5 9.859375 -16.5 Z M 16.171875 -39 C 15.953125 -37.300781 15.320312 -35.835938 14.28125 -34.609375 C 13.25 -33.378906 12.046875 -32.765625 10.671875 -32.765625 C 8.921875 -32.765625 7.398438 -33.363281 6.109375 -34.5625 C 4.828125 -35.769531 4.1875 -37.113281 4.1875 -38.59375 C 4.1875 -40.175781 4.757812 -41.582031 5.90625 -42.8125 C 7.0625 -44.050781 8.457031 -44.671875 10.09375 -44.671875 C 11.132812 -44.671875 12.109375 -44.367188 13.015625 -43.765625 C 13.921875 -43.160156 14.671875 -42.421875 15.265625 -41.546875 C 15.867188 -40.671875 16.171875 -39.820312 16.171875 -39 Z M 16.171875 -39 "/></g></g><g style="fill:#000000;fill-opacity:1;"><g transform="translate(146.390546, 237.908933)"><path style="stroke:none" d="M 13.328125 -0.5625 C 13.304688 -0.425781 13.171875 -0.328125 12.921875 -0.265625 C 12.679688 -0.203125 12.394531 -0.164062 12.0625 -0.15625 C 11.695312 -0.144531 11.316406 -0.15625 10.921875 -0.1875 C 10.523438 -0.21875 10.15625 -0.25 9.8125 -0.28125 C 9.476562 -0.320312 9.226562 -0.359375 9.0625 -0.390625 C 8.945312 -0.640625 8.9375 -0.835938 9.03125 -0.984375 C 9.132812 -1.140625 9.289062 -1.257812 9.5 -1.34375 C 9.707031 -1.425781 9.898438 -1.476562 10.078125 -1.5 C 10.117188 -1.675781 10.113281 -1.898438 10.0625 -2.171875 C 10.007812 -2.453125 9.929688 -2.742188 9.828125 -3.046875 C 9.734375 -3.347656 9.648438 -3.617188 9.578125 -3.859375 C 9.523438 -4.003906 9.476562 -4.132812 9.4375 -4.25 C 9.40625 -4.363281 9.378906 -4.453125 9.359375 -4.515625 C 8.660156 -4.546875 7.890625 -4.546875 7.046875 -4.515625 C 6.210938 -4.492188 5.472656 -4.460938 4.828125 -4.421875 C 4.765625 -4.304688 4.679688 -4.125 4.578125 -3.875 C 4.472656 -3.625 4.359375 -3.347656 4.234375 -3.046875 C 4.117188 -2.753906 4.003906 -2.472656 3.890625 -2.203125 C 3.773438 -1.941406 3.675781 -1.726562 3.59375 -1.5625 C 3.65625 -1.414062 3.800781 -1.328125 4.03125 -1.296875 C 4.269531 -1.273438 4.5 -1.234375 4.71875 -1.171875 C 4.90625 -1.117188 5.054688 -1.023438 5.171875 -0.890625 C 5.285156 -0.753906 5.3125 -0.535156 5.25 -0.234375 C 4.925781 -0.171875 4.582031 -0.140625 4.21875 -0.140625 C 3.863281 -0.148438 3.515625 -0.164062 3.171875 -0.1875 C 2.796875 -0.21875 2.4375 -0.234375 2.09375 -0.234375 C 1.757812 -0.234375 1.457031 -0.1875 1.1875 -0.09375 C 1.125 -0.1875 1.070312 -0.285156 1.03125 -0.390625 C 0.988281 -0.503906 0.914062 -0.585938 0.8125 -0.640625 C 0.820312 -0.828125 0.863281 -0.976562 0.9375 -1.09375 C 1.019531 -1.207031 1.078125 -1.34375 1.109375 -1.5 C 1.429688 -1.476562 1.710938 -1.515625 1.953125 -1.609375 C 2.191406 -1.703125 2.394531 -1.835938 2.5625 -2.015625 C 2.84375 -2.316406 3.054688 -2.691406 3.203125 -3.140625 C 3.347656 -3.597656 3.503906 -4.023438 3.671875 -4.421875 C 3.941406 -5.085938 4.207031 -5.789062 4.46875 -6.53125 C 4.726562 -7.269531 5.003906 -8.003906 5.296875 -8.734375 C 5.578125 -9.492188 5.863281 -10.222656 6.15625 -10.921875 C 6.445312 -11.628906 6.742188 -12.269531 7.046875 -12.84375 C 7.222656 -12.882812 7.441406 -12.910156 7.703125 -12.921875 C 7.972656 -12.929688 8.191406 -12.90625 8.359375 -12.84375 C 8.285156 -12.644531 8.265625 -12.472656 8.296875 -12.328125 C 8.328125 -12.191406 8.367188 -12.0625 8.421875 -11.9375 C 8.472656 -11.820312 8.515625 -11.703125 8.546875 -11.578125 C 8.578125 -11.460938 8.5625 -11.316406 8.5 -11.140625 C 8.644531 -10.773438 8.789062 -10.382812 8.9375 -9.96875 C 9.09375 -9.5625 9.253906 -9.144531 9.421875 -8.71875 C 9.753906 -7.8125 10.082031 -6.878906 10.40625 -5.921875 C 10.738281 -4.960938 11.035156 -4.0625 11.296875 -3.21875 C 11.328125 -3.082031 11.367188 -2.914062 11.421875 -2.71875 C 11.484375 -2.53125 11.539062 -2.378906 11.59375 -2.265625 C 11.632812 -2.203125 11.679688 -2.140625 11.734375 -2.078125 C 11.785156 -2.023438 11.835938 -1.972656 11.890625 -1.921875 C 11.972656 -1.828125 12.046875 -1.738281 12.109375 -1.65625 C 12.179688 -1.570312 12.203125 -1.460938 12.171875 -1.328125 C 12.210938 -1.316406 12.269531 -1.300781 12.34375 -1.28125 C 12.601562 -1.238281 12.847656 -1.171875 13.078125 -1.078125 C 13.304688 -0.984375 13.390625 -0.8125 13.328125 -0.5625 Z M 8.96875 -5.6875 C 8.875 -5.9375 8.742188 -6.347656 8.578125 -6.921875 C 8.410156 -7.503906 8.21875 -8.109375 8 -8.734375 C 7.875 -9.109375 7.738281 -9.460938 7.59375 -9.796875 C 7.457031 -10.140625 7.316406 -10.445312 7.171875 -10.71875 L 6.4375 -8.734375 C 6.289062 -8.304688 6.132812 -7.875 5.96875 -7.4375 C 5.800781 -7.007812 5.65625 -6.617188 5.53125 -6.265625 C 5.40625 -5.921875 5.3125 -5.671875 5.25 -5.515625 C 5.414062 -5.535156 5.671875 -5.546875 6.015625 -5.546875 C 6.367188 -5.554688 6.738281 -5.5625 7.125 -5.5625 C 7.519531 -5.570312 7.882812 -5.585938 8.21875 -5.609375 C 8.5625 -5.628906 8.8125 -5.65625 8.96875 -5.6875 Z M 8.96875 -5.6875 "/></g></g><g style="fill:#000000;fill-opacity:1;"><g transform="translate(160.580608, 237.908933)"><path style="stroke:none" d="M 12.578125 -0.15625 C 12.148438 -0.0390625 11.753906 -0.00390625 11.390625 -0.046875 C 11.023438 -0.0859375 10.660156 -0.15625 10.296875 -0.25 C 10.035156 -0.5625 9.8125 -0.9375 9.625 -1.375 C 9.445312 -1.8125 9.28125 -2.273438 9.125 -2.765625 C 8.976562 -3.265625 8.800781 -3.734375 8.59375 -4.171875 C 8.394531 -4.617188 8.148438 -4.988281 7.859375 -5.28125 C 7.566406 -5.582031 7.191406 -5.765625 6.734375 -5.828125 C 6.535156 -5.847656 6.332031 -5.859375 6.125 -5.859375 C 5.925781 -5.859375 5.734375 -5.851562 5.546875 -5.84375 C 5.390625 -5.832031 5.242188 -5.828125 5.109375 -5.828125 C 4.984375 -5.828125 4.867188 -5.832031 4.765625 -5.84375 C 4.742188 -5.5 4.734375 -5.15625 4.734375 -4.8125 C 4.742188 -4.46875 4.765625 -4.117188 4.796875 -3.765625 C 4.804688 -3.378906 4.816406 -2.988281 4.828125 -2.59375 C 4.835938 -2.207031 4.816406 -1.820312 4.765625 -1.4375 C 4.859375 -1.25 5.015625 -1.125 5.234375 -1.0625 C 5.453125 -1.007812 5.671875 -0.953125 5.890625 -0.890625 C 6.117188 -0.835938 6.285156 -0.726562 6.390625 -0.5625 C 6.234375 -0.351562 5.972656 -0.222656 5.609375 -0.171875 C 5.253906 -0.128906 4.875 -0.109375 4.46875 -0.109375 C 4.363281 -0.109375 4.253906 -0.109375 4.140625 -0.109375 C 4.023438 -0.109375 3.914062 -0.109375 3.8125 -0.109375 C 3.46875 -0.128906 3.144531 -0.132812 2.84375 -0.125 C 2.550781 -0.113281 2.316406 -0.078125 2.140625 -0.015625 C 2.035156 -0.285156 2.03125 -0.488281 2.125 -0.625 C 2.226562 -0.757812 2.363281 -0.875 2.53125 -0.96875 C 2.695312 -1.050781 2.867188 -1.128906 3.046875 -1.203125 C 3.222656 -1.285156 3.34375 -1.40625 3.40625 -1.5625 C 3.375 -2.832031 3.347656 -4.039062 3.328125 -5.1875 C 3.316406 -6.34375 3.296875 -7.523438 3.265625 -8.734375 L 3.21875 -11.5625 C 3.113281 -11.601562 3.003906 -11.625 2.890625 -11.625 C 2.785156 -11.625 2.679688 -11.625 2.578125 -11.625 C 2.453125 -11.601562 2.328125 -11.597656 2.203125 -11.609375 C 2.078125 -11.617188 1.960938 -11.664062 1.859375 -11.75 C 1.878906 -11.8125 1.878906 -11.863281 1.859375 -11.90625 C 1.835938 -11.945312 1.8125 -11.984375 1.78125 -12.015625 C 1.769531 -12.054688 1.757812 -12.097656 1.75 -12.140625 C 1.738281 -12.191406 1.742188 -12.242188 1.765625 -12.296875 C 2.023438 -12.429688 2.316406 -12.507812 2.640625 -12.53125 C 2.972656 -12.550781 3.316406 -12.554688 3.671875 -12.546875 C 3.816406 -12.546875 3.957031 -12.546875 4.09375 -12.546875 C 4.238281 -12.546875 4.378906 -12.550781 4.515625 -12.5625 C 5.242188 -12.613281 5.957031 -12.632812 6.65625 -12.625 C 7.363281 -12.625 8.015625 -12.5625 8.609375 -12.4375 C 9.203125 -12.3125 9.707031 -12.085938 10.125 -11.765625 C 10.46875 -11.503906 10.726562 -11.15625 10.90625 -10.71875 C 11.082031 -10.28125 11.140625 -9.722656 11.078125 -9.046875 C 11.066406 -8.992188 11.046875 -8.941406 11.015625 -8.890625 C 10.984375 -8.835938 10.953125 -8.78125 10.921875 -8.71875 C 10.847656 -8.5625 10.78125 -8.398438 10.71875 -8.234375 C 10.65625 -8.078125 10.601562 -7.910156 10.5625 -7.734375 C 10.269531 -7.617188 10.019531 -7.453125 9.8125 -7.234375 C 9.601562 -7.023438 9.382812 -6.832031 9.15625 -6.65625 C 8.925781 -6.476562 8.617188 -6.367188 8.234375 -6.328125 C 8.773438 -6.003906 9.21875 -5.582031 9.5625 -5.0625 C 9.914062 -4.550781 10.222656 -3.992188 10.484375 -3.390625 C 10.753906 -2.785156 11.015625 -2.175781 11.265625 -1.5625 C 11.335938 -1.519531 11.410156 -1.484375 11.484375 -1.453125 C 11.554688 -1.421875 11.632812 -1.382812 11.71875 -1.34375 C 11.96875 -1.238281 12.203125 -1.109375 12.421875 -0.953125 C 12.640625 -0.796875 12.691406 -0.53125 12.578125 -0.15625 Z M 9.328125 -9.46875 C 9.328125 -9.757812 9.28125 -10.066406 9.1875 -10.390625 C 9.101562 -10.710938 8.960938 -11.03125 8.765625 -11.34375 C 8.304688 -11.59375 7.820312 -11.726562 7.3125 -11.75 C 6.8125 -11.78125 6.265625 -11.785156 5.671875 -11.765625 C 5.546875 -11.765625 5.414062 -11.757812 5.28125 -11.75 C 5.15625 -11.75 5.023438 -11.75 4.890625 -11.75 C 4.773438 -11.632812 4.71875 -11.472656 4.71875 -11.265625 C 4.71875 -11.066406 4.722656 -10.851562 4.734375 -10.625 C 4.742188 -10.53125 4.75 -10.4375 4.75 -10.34375 C 4.757812 -10.257812 4.765625 -10.171875 4.765625 -10.078125 C 4.765625 -9.867188 4.757812 -9.648438 4.75 -9.421875 C 4.738281 -9.191406 4.726562 -8.960938 4.71875 -8.734375 C 4.695312 -8.398438 4.6875 -8.054688 4.6875 -7.703125 C 4.6875 -7.347656 4.710938 -7 4.765625 -6.65625 C 5.378906 -6.550781 6.015625 -6.550781 6.671875 -6.65625 C 7.328125 -6.757812 7.859375 -6.972656 8.265625 -7.296875 C 8.753906 -7.671875 9.078125 -8.144531 9.234375 -8.71875 C 9.296875 -8.96875 9.328125 -9.21875 9.328125 -9.46875 Z M 9.328125 -9.46875 "/></g></g><g style="fill:#000000;fill-opacity:1;"><g transform="translate(174.040015, 237.908933)"><path style="stroke:none" d="M 13.34375 -5.296875 C 13.269531 -4.523438 13.066406 -3.828125 12.734375 -3.203125 C 12.410156 -2.585938 12.007812 -2.054688 11.53125 -1.609375 C 11.050781 -1.160156 10.539062 -0.8125 10 -0.5625 C 9.363281 -0.34375 8.671875 -0.207031 7.921875 -0.15625 C 7.179688 -0.113281 6.429688 -0.09375 5.671875 -0.09375 C 5.003906 -0.09375 4.351562 -0.078125 3.71875 -0.046875 C 3.082031 -0.015625 2.503906 0.078125 1.984375 0.234375 C 2.003906 0.015625 2.054688 -0.175781 2.140625 -0.34375 C 2.234375 -0.507812 2.34375 -0.65625 2.46875 -0.78125 C 2.550781 -0.8125 2.628906 -0.828125 2.703125 -0.828125 C 2.785156 -0.828125 2.863281 -0.828125 2.9375 -0.828125 C 3.019531 -0.816406 3.101562 -0.8125 3.1875 -0.8125 C 3.269531 -0.8125 3.363281 -0.828125 3.46875 -0.859375 C 3.488281 -1.546875 3.492188 -2.28125 3.484375 -3.0625 C 3.484375 -3.851562 3.476562 -4.671875 3.46875 -5.515625 C 3.445312 -6.046875 3.429688 -6.578125 3.421875 -7.109375 C 3.421875 -7.648438 3.421875 -8.191406 3.421875 -8.734375 C 3.421875 -9.203125 3.421875 -9.671875 3.421875 -10.140625 C 3.429688 -10.609375 3.445312 -11.066406 3.46875 -11.515625 C 3.332031 -11.585938 3.191406 -11.625 3.046875 -11.625 C 2.910156 -11.632812 2.773438 -11.632812 2.640625 -11.625 C 2.503906 -11.625 2.367188 -11.625 2.234375 -11.625 C 2.097656 -11.632812 1.984375 -11.671875 1.890625 -11.734375 C 1.910156 -12.109375 2.0625 -12.351562 2.34375 -12.46875 C 2.625 -12.59375 2.941406 -12.660156 3.296875 -12.671875 C 4.003906 -12.710938 4.785156 -12.722656 5.640625 -12.703125 C 6.503906 -12.691406 7.351562 -12.640625 8.1875 -12.546875 C 9.019531 -12.453125 9.765625 -12.289062 10.421875 -12.0625 C 11.078125 -11.84375 11.550781 -11.535156 11.84375 -11.140625 C 12.09375 -10.816406 12.316406 -10.453125 12.515625 -10.046875 C 12.722656 -9.640625 12.898438 -9.195312 13.046875 -8.71875 C 13.179688 -8.21875 13.28125 -7.679688 13.34375 -7.109375 C 13.40625 -6.535156 13.40625 -5.929688 13.34375 -5.296875 Z M 11.484375 -8.15625 C 11.472656 -8.257812 11.457031 -8.351562 11.4375 -8.4375 C 11.414062 -8.53125 11.394531 -8.625 11.375 -8.71875 C 11.15625 -9.582031 10.742188 -10.25 10.140625 -10.71875 C 9.535156 -11.1875 8.789062 -11.488281 7.90625 -11.625 C 7.03125 -11.757812 6.066406 -11.742188 5.015625 -11.578125 C 5.015625 -11.140625 5.019531 -10.679688 5.03125 -10.203125 C 5.039062 -9.734375 5.046875 -9.242188 5.046875 -8.734375 C 5.054688 -7.609375 5.0625 -6.445312 5.0625 -5.25 C 5.0625 -4.0625 5.046875 -2.929688 5.015625 -1.859375 C 5.015625 -1.722656 5.003906 -1.566406 4.984375 -1.390625 C 4.972656 -1.222656 4.929688 -1.066406 4.859375 -0.921875 C 5.109375 -0.929688 5.34375 -0.9375 5.5625 -0.9375 C 5.789062 -0.9375 6.015625 -0.9375 6.234375 -0.9375 C 6.648438 -0.9375 7.050781 -0.941406 7.4375 -0.953125 C 7.820312 -0.972656 8.179688 -1.019531 8.515625 -1.09375 C 8.742188 -1.15625 9.03125 -1.25 9.375 -1.375 C 9.71875 -1.507812 9.976562 -1.644531 10.15625 -1.78125 C 10.445312 -2.019531 10.695312 -2.378906 10.90625 -2.859375 C 11.113281 -3.335938 11.269531 -3.878906 11.375 -4.484375 C 11.488281 -5.097656 11.550781 -5.722656 11.5625 -6.359375 C 11.582031 -7.003906 11.554688 -7.601562 11.484375 -8.15625 Z M 11.484375 -8.15625 "/></g></g><g style="fill:#000000;fill-opacity:1;"><g transform="translate(189.614472, 237.908933)"><path style="stroke:none" d="M 7.015625 -12.0625 C 6.953125 -11.863281 6.800781 -11.75 6.5625 -11.71875 C 6.332031 -11.695312 6.085938 -11.695312 5.828125 -11.71875 C 5.753906 -11.71875 5.675781 -11.71875 5.59375 -11.71875 C 5.519531 -11.71875 5.441406 -11.71875 5.359375 -11.71875 C 5.316406 -11.675781 5.332031 -11.578125 5.40625 -11.421875 C 5.425781 -11.367188 5.445312 -11.3125 5.46875 -11.25 C 5.488281 -11.195312 5.5 -11.144531 5.5 -11.09375 C 5.445312 -11.039062 5.40625 -10.976562 5.375 -10.90625 C 5.351562 -10.84375 5.332031 -10.757812 5.3125 -10.65625 C 5.300781 -10.332031 5.296875 -10.015625 5.296875 -9.703125 C 5.296875 -9.390625 5.285156 -9.066406 5.265625 -8.734375 C 5.253906 -7.503906 5.242188 -6.257812 5.234375 -5 C 5.234375 -3.738281 5.234375 -2.488281 5.234375 -1.25 C 5.523438 -1.238281 5.84375 -1.164062 6.1875 -1.03125 C 6.539062 -0.90625 6.789062 -0.707031 6.9375 -0.4375 C 6.625 -0.25 6.257812 -0.144531 5.84375 -0.125 C 5.425781 -0.113281 4.992188 -0.125 4.546875 -0.15625 C 4.273438 -0.164062 4.003906 -0.171875 3.734375 -0.171875 C 3.472656 -0.179688 3.222656 -0.171875 2.984375 -0.140625 C 2.898438 -0.117188 2.835938 -0.0859375 2.796875 -0.046875 C 2.765625 -0.00390625 2.726562 0.0390625 2.6875 0.09375 C 2.65625 0.175781 2.601562 0.242188 2.53125 0.296875 C 2.46875 0.359375 2.367188 0.367188 2.234375 0.328125 C 2.097656 0.148438 2.046875 -0.0234375 2.078125 -0.203125 C 2.117188 -0.390625 2.191406 -0.5625 2.296875 -0.71875 C 2.410156 -0.882812 2.507812 -1.015625 2.59375 -1.109375 C 2.65625 -1.109375 2.722656 -1.109375 2.796875 -1.109375 C 2.867188 -1.109375 2.941406 -1.109375 3.015625 -1.109375 C 3.171875 -1.109375 3.328125 -1.109375 3.484375 -1.109375 C 3.640625 -1.109375 3.773438 -1.132812 3.890625 -1.1875 C 3.867188 -2.34375 3.859375 -3.570312 3.859375 -4.875 C 3.859375 -6.175781 3.847656 -7.460938 3.828125 -8.734375 C 3.816406 -9.734375 3.78125 -10.695312 3.71875 -11.625 C 3.625 -11.644531 3.523438 -11.65625 3.421875 -11.65625 C 3.316406 -11.664062 3.207031 -11.671875 3.09375 -11.671875 C 2.914062 -11.671875 2.742188 -11.675781 2.578125 -11.6875 C 2.410156 -11.707031 2.265625 -11.769531 2.140625 -11.875 C 2.109375 -11.96875 2.109375 -12.039062 2.140625 -12.09375 C 2.171875 -12.144531 2.207031 -12.195312 2.25 -12.25 C 2.289062 -12.289062 2.320312 -12.332031 2.34375 -12.375 C 2.375 -12.414062 2.390625 -12.472656 2.390625 -12.546875 C 2.785156 -12.546875 3.207031 -12.5625 3.65625 -12.59375 C 4.113281 -12.632812 4.5625 -12.65625 5 -12.65625 C 5.4375 -12.65625 5.832031 -12.613281 6.1875 -12.53125 C 6.550781 -12.457031 6.828125 -12.300781 7.015625 -12.0625 Z M 7.015625 -12.0625 "/></g></g><g style="fill:#000000;fill-opacity:1;"><g transform="translate(198.651503, 237.908933)"><path style="stroke:none" d="M 13.328125 -0.5625 C 13.304688 -0.425781 13.171875 -0.328125 12.921875 -0.265625 C 12.679688 -0.203125 12.394531 -0.164062 12.0625 -0.15625 C 11.695312 -0.144531 11.316406 -0.15625 10.921875 -0.1875 C 10.523438 -0.21875 10.15625 -0.25 9.8125 -0.28125 C 9.476562 -0.320312 9.226562 -0.359375 9.0625 -0.390625 C 8.945312 -0.640625 8.9375 -0.835938 9.03125 -0.984375 C 9.132812 -1.140625 9.289062 -1.257812 9.5 -1.34375 C 9.707031 -1.425781 9.898438 -1.476562 10.078125 -1.5 C 10.117188 -1.675781 10.113281 -1.898438 10.0625 -2.171875 C 10.007812 -2.453125 9.929688 -2.742188 9.828125 -3.046875 C 9.734375 -3.347656 9.648438 -3.617188 9.578125 -3.859375 C 9.523438 -4.003906 9.476562 -4.132812 9.4375 -4.25 C 9.40625 -4.363281 9.378906 -4.453125 9.359375 -4.515625 C 8.660156 -4.546875 7.890625 -4.546875 7.046875 -4.515625 C 6.210938 -4.492188 5.472656 -4.460938 4.828125 -4.421875 C 4.765625 -4.304688 4.679688 -4.125 4.578125 -3.875 C 4.472656 -3.625 4.359375 -3.347656 4.234375 -3.046875 C 4.117188 -2.753906 4.003906 -2.472656 3.890625 -2.203125 C 3.773438 -1.941406 3.675781 -1.726562 3.59375 -1.5625 C 3.65625 -1.414062 3.800781 -1.328125 4.03125 -1.296875 C 4.269531 -1.273438 4.5 -1.234375 4.71875 -1.171875 C 4.90625 -1.117188 5.054688 -1.023438 5.171875 -0.890625 C 5.285156 -0.753906 5.3125 -0.535156 5.25 -0.234375 C 4.925781 -0.171875 4.582031 -0.140625 4.21875 -0.140625 C 3.863281 -0.148438 3.515625 -0.164062 3.171875 -0.1875 C 2.796875 -0.21875 2.4375 -0.234375 2.09375 -0.234375 C 1.757812 -0.234375 1.457031 -0.1875 1.1875 -0.09375 C 1.125 -0.1875 1.070312 -0.285156 1.03125 -0.390625 C 0.988281 -0.503906 0.914062 -0.585938 0.8125 -0.640625 C 0.820312 -0.828125 0.863281 -0.976562 0.9375 -1.09375 C 1.019531 -1.207031 1.078125 -1.34375 1.109375 -1.5 C 1.429688 -1.476562 1.710938 -1.515625 1.953125 -1.609375 C 2.191406 -1.703125 2.394531 -1.835938 2.5625 -2.015625 C 2.84375 -2.316406 3.054688 -2.691406 3.203125 -3.140625 C 3.347656 -3.597656 3.503906 -4.023438 3.671875 -4.421875 C 3.941406 -5.085938 4.207031 -5.789062 4.46875 -6.53125 C 4.726562 -7.269531 5.003906 -8.003906 5.296875 -8.734375 C 5.578125 -9.492188 5.863281 -10.222656 6.15625 -10.921875 C 6.445312 -11.628906 6.742188 -12.269531 7.046875 -12.84375 C 7.222656 -12.882812 7.441406 -12.910156 7.703125 -12.921875 C 7.972656 -12.929688 8.191406 -12.90625 8.359375 -12.84375 C 8.285156 -12.644531 8.265625 -12.472656 8.296875 -12.328125 C 8.328125 -12.191406 8.367188 -12.0625 8.421875 -11.9375 C 8.472656 -11.820312 8.515625 -11.703125 8.546875 -11.578125 C 8.578125 -11.460938 8.5625 -11.316406 8.5 -11.140625 C 8.644531 -10.773438 8.789062 -10.382812 8.9375 -9.96875 C 9.09375 -9.5625 9.253906 -9.144531 9.421875 -8.71875 C 9.753906 -7.8125 10.082031 -6.878906 10.40625 -5.921875 C 10.738281 -4.960938 11.035156 -4.0625 11.296875 -3.21875 C 11.328125 -3.082031 11.367188 -2.914062 11.421875 -2.71875 C 11.484375 -2.53125 11.539062 -2.378906 11.59375 -2.265625 C 11.632812 -2.203125 11.679688 -2.140625 11.734375 -2.078125 C 11.785156 -2.023438 11.835938 -1.972656 11.890625 -1.921875 C 11.972656 -1.828125 12.046875 -1.738281 12.109375 -1.65625 C 12.179688 -1.570312 12.203125 -1.460938 12.171875 -1.328125 C 12.210938 -1.316406 12.269531 -1.300781 12.34375 -1.28125 C 12.601562 -1.238281 12.847656 -1.171875 13.078125 -1.078125 C 13.304688 -0.984375 13.390625 -0.8125 13.328125 -0.5625 Z M 8.96875 -5.6875 C 8.875 -5.9375 8.742188 -6.347656 8.578125 -6.921875 C 8.410156 -7.503906 8.21875 -8.109375 8 -8.734375 C 7.875 -9.109375 7.738281 -9.460938 7.59375 -9.796875 C 7.457031 -10.140625 7.316406 -10.445312 7.171875 -10.71875 L 6.4375 -8.734375 C 6.289062 -8.304688 6.132812 -7.875 5.96875 -7.4375 C 5.800781 -7.007812 5.65625 -6.617188 5.53125 -6.265625 C 5.40625 -5.921875 5.3125 -5.671875 5.25 -5.515625 C 5.414062 -5.535156 5.671875 -5.546875 6.015625 -5.546875 C 6.367188 -5.554688 6.738281 -5.5625 7.125 -5.5625 C 7.519531 -5.570312 7.882812 -5.585938 8.21875 -5.609375 C 8.5625 -5.628906 8.8125 -5.65625 8.96875 -5.6875 Z M 8.96875 -5.6875 "/></g></g><g style="fill:#000000;fill-opacity:1;"><g transform="translate(212.841565, 237.908933)"><path style="stroke:none" d="M 14.234375 -12.25 C 14.222656 -11.976562 14.09375 -11.816406 13.84375 -11.765625 C 13.59375 -11.710938 13.316406 -11.6875 13.015625 -11.6875 C 12.921875 -11.664062 12.851562 -11.609375 12.8125 -11.515625 C 12.78125 -11.421875 12.75 -11.316406 12.71875 -11.203125 C 12.695312 -11.097656 12.625 -11.003906 12.5 -10.921875 C 12.539062 -10.578125 12.570312 -10.21875 12.59375 -9.84375 C 12.613281 -9.476562 12.628906 -9.101562 12.640625 -8.71875 C 12.648438 -8.28125 12.65625 -7.832031 12.65625 -7.375 C 12.65625 -6.914062 12.65625 -6.457031 12.65625 -6 C 12.664062 -5.007812 12.679688 -4.035156 12.703125 -3.078125 C 12.722656 -2.128906 12.789062 -1.257812 12.90625 -0.46875 C 12.757812 -0.257812 12.539062 -0.140625 12.25 -0.109375 C 11.957031 -0.0859375 11.753906 -0.144531 11.640625 -0.28125 C 11.328125 -0.65625 11.03125 -1.070312 10.75 -1.53125 C 10.476562 -2 10.160156 -2.453125 9.796875 -2.890625 C 9.097656 -3.703125 8.425781 -4.632812 7.78125 -5.6875 C 7.144531 -6.738281 6.503906 -7.753906 5.859375 -8.734375 C 5.617188 -9.128906 5.367188 -9.503906 5.109375 -9.859375 C 4.859375 -10.222656 4.601562 -10.566406 4.34375 -10.890625 C 4.332031 -10.503906 4.320312 -10.132812 4.3125 -9.78125 C 4.300781 -9.4375 4.296875 -9.085938 4.296875 -8.734375 C 4.296875 -8.253906 4.300781 -7.757812 4.3125 -7.25 C 4.320312 -6.75 4.332031 -6.191406 4.34375 -5.578125 C 4.34375 -5.347656 4.335938 -5.109375 4.328125 -4.859375 C 4.328125 -4.609375 4.320312 -4.359375 4.3125 -4.109375 C 4.28125 -3.597656 4.257812 -3.113281 4.25 -2.65625 C 4.25 -2.207031 4.304688 -1.832031 4.421875 -1.53125 C 4.484375 -1.351562 4.597656 -1.21875 4.765625 -1.125 C 4.929688 -1.039062 5.101562 -0.960938 5.28125 -0.890625 C 5.46875 -0.816406 5.601562 -0.71875 5.6875 -0.59375 C 5.632812 -0.4375 5.53125 -0.332031 5.375 -0.28125 C 5.21875 -0.238281 5.097656 -0.15625 5.015625 -0.03125 C 4.785156 -0.125 4.546875 -0.164062 4.296875 -0.15625 C 4.046875 -0.15625 3.800781 -0.132812 3.5625 -0.09375 C 3.289062 -0.0703125 3.03125 -0.0625 2.78125 -0.0625 C 2.539062 -0.0625 2.316406 -0.117188 2.109375 -0.234375 C 2.035156 -0.335938 2.007812 -0.421875 2.03125 -0.484375 C 2.050781 -0.554688 2.078125 -0.625 2.109375 -0.6875 C 2.140625 -0.738281 2.164062 -0.785156 2.1875 -0.828125 C 2.21875 -0.878906 2.234375 -0.9375 2.234375 -1 C 2.398438 -1.0625 2.570312 -1.113281 2.75 -1.15625 C 2.925781 -1.207031 3.109375 -1.257812 3.296875 -1.3125 C 3.410156 -2.289062 3.457031 -3.316406 3.4375 -4.390625 C 3.414062 -5.472656 3.375 -6.585938 3.3125 -7.734375 C 3.3125 -7.898438 3.304688 -8.066406 3.296875 -8.234375 C 3.296875 -8.398438 3.285156 -8.566406 3.265625 -8.734375 C 3.253906 -9.222656 3.238281 -9.707031 3.21875 -10.1875 C 3.195312 -10.664062 3.179688 -11.148438 3.171875 -11.640625 C 3.015625 -11.585938 2.851562 -11.566406 2.6875 -11.578125 C 2.519531 -11.585938 2.378906 -11.625 2.265625 -11.6875 C 2.140625 -11.78125 2.0625 -11.90625 2.03125 -12.0625 C 2.007812 -12.21875 2.085938 -12.394531 2.265625 -12.59375 C 2.429688 -12.582031 2.597656 -12.578125 2.765625 -12.578125 C 2.929688 -12.578125 3.097656 -12.582031 3.265625 -12.59375 C 3.703125 -12.59375 4.128906 -12.578125 4.546875 -12.546875 C 4.960938 -12.523438 5.359375 -12.429688 5.734375 -12.265625 C 5.734375 -12.203125 5.71875 -12.15625 5.6875 -12.125 C 5.65625 -12.101562 5.617188 -12.082031 5.578125 -12.0625 C 5.472656 -12.019531 5.421875 -11.96875 5.421875 -11.90625 C 5.785156 -11.382812 6.148438 -10.851562 6.515625 -10.3125 C 6.878906 -9.78125 7.238281 -9.253906 7.59375 -8.734375 C 8.289062 -7.742188 8.988281 -6.753906 9.6875 -5.765625 C 10.382812 -4.785156 11.070312 -3.8125 11.75 -2.84375 C 11.726562 -3.832031 11.71875 -4.8125 11.71875 -5.78125 C 11.71875 -6.757812 11.703125 -7.738281 11.671875 -8.71875 C 11.648438 -9.675781 11.59375 -10.632812 11.5 -11.59375 C 11.414062 -11.632812 11.328125 -11.660156 11.234375 -11.671875 C 11.140625 -11.679688 11.050781 -11.6875 10.96875 -11.6875 C 10.800781 -11.71875 10.648438 -11.75 10.515625 -11.78125 C 10.390625 -11.820312 10.320312 -11.925781 10.3125 -12.09375 C 10.300781 -12.3125 10.457031 -12.46875 10.78125 -12.5625 C 11.101562 -12.664062 11.484375 -12.722656 11.921875 -12.734375 C 12.253906 -12.742188 12.585938 -12.726562 12.921875 -12.6875 C 13.253906 -12.65625 13.539062 -12.597656 13.78125 -12.515625 C 14.03125 -12.441406 14.179688 -12.351562 14.234375 -12.25 Z M 14.234375 -12.25 "/></g></g></g></svg>